<?xml version="1.0" standalone="no"?>
<!DOCTYPE svg PUBLIC "-//W3C//DTD SVG 1.1//EN" "http://www.w3.org/Graphics/SVG/1.1/DTD/svg11.dtd" >
<svg xmlns="http://www.w3.org/2000/svg">
<metadata></metadata>
<defs>
<font id="codename_coder_free_4fbold" horiz-adv-x="942" >
<font-face units-per-em="2048" ascent="1638" descent="-410" />
<missing-glyph horiz-adv-x="500" />
<glyph horiz-adv-x="0" />
<glyph />
<glyph unicode=" " />
<glyph unicode="!" d="M348 1229h246v-942h-205v737zM389 0v205h205v-205h-205z" />
<glyph unicode="&#x22;" d="M225 1024v205h205v-205l-41 -205h-123zM512 1024v205h205v-205l-41 -205h-123z" />
<glyph unicode="#" d="M20 369l41 204h861l-41 -204h-861zM20 655l41 205h861l-41 -205h-861zM39 0l299 1229h217l-299 -1229h-217zM387 0l299 1229h217l-299 -1229h-217z" />
<glyph unicode="$" d="M102 0l41 205h492v205l-533 286v328l82 205h185v205h204v-205h226l41 -205h-533v-205l533 -287v-327l-82 -205h-185v-205h-204v205h-267z" />
<glyph unicode="%" d="M20 901v123l82 205h226l82 -205v-123l-82 -205h-226zM143 860h144v205h-144v-205zM152 0l421 1229h218l-422 -1229h-217zM532 205v123l82 204h226l82 -204v-123l-82 -205h-226zM655 164h144v205h-144v-205z" />
<glyph unicode="&#x26;" d="M61 205v389l156 96l-156 242v92l82 205h471l82 -205v-272l-198 -125l161 -250l134 82l108 -172l-133 -82l133 -205h-237l-66 100l-166 -100h-289zM272 205h105l110 67l-159 248l-56 -35v-280zM272 983l117 -184l96 61v164h-213v-41z" />
<glyph unicode="'" d="M369 1024v205h204v-205l-41 -205h-122z" />
<glyph unicode="(" d="M266 102v1024l82 205h328l-41 -205h-164v-1024h205l-41 -204h-287z" />
<glyph unicode=")" d="M266 -102l41 204h164v1024h-205l41 205h287l82 -205v-1024l-82 -204h-328z" />
<glyph unicode="*" d="M76 463l215 151l-215 152l119 168l174 -123v213h204v-213l175 123l118 -168l-217 -152l217 -151l-118 -168l-175 121v-211h-204v211l-174 -121z" />
<glyph unicode="+" d="M61 512v205h308v307h204v-307h308v-205h-308v-307h-204v307h-308z" />
<glyph unicode="," d="M369 0v205h204v-205l-41 -205h-163l41 205h-41z" />
<glyph unicode="-" d="M164 512v205h614v-205h-614z" />
<glyph unicode="." d="M369 0v205h204v-205h-204z" />
<glyph unicode="/" d="M152 0l421 1229h218l-422 -1229h-217z" />
<glyph unicode="0" d="M113 205v819l82 205h553l81 -205v-819l-81 -205h-553zM317 205h308v819h-308v-819z" />
<glyph unicode="1" d="M82 0v205h266v766l-266 -205v258l266 205h205v-1024h307l-41 -205h-737z" />
<glyph unicode="2" d="M102 0v512l82 205h451v307h-533l41 205h615l82 -205v-307l-82 -205h-451v-307h533l-41 -205h-697z" />
<glyph unicode="3" d="M102 0l41 205h492v307h-328l41 205h152l118 307h-516l41 205h697v-205l-119 -307h37l82 -205v-307l-82 -205h-656z" />
<glyph unicode="4" d="M82 307v205l274 717h222l-275 -717h352v512h205v-1024h-205v307h-573z" />
<glyph unicode="5" d="M102 0l41 205h492v307h-533v717h738v-205h-533v-307h451l82 -195v-317l-82 -205h-656z" />
<glyph unicode="6" d="M102 205v819l82 205h656l-41 -205h-492v-307h451l82 -205v-307l-82 -205h-574zM307 205h328v307h-328v-307z" />
<glyph unicode="7" d="M102 1024v205h738v-205l-394 -1024h-221l393 1024h-516z" />
<glyph unicode="8" d="M102 205v307l103 82v41l-103 82v307l82 205h574l82 -205v-307l-103 -82v-41l103 -82v-307l-82 -205h-574zM307 205h328v307h-328v-307zM307 717h328v307h-328v-307z" />
<glyph unicode="9" d="M102 717v307l82 205h574l82 -205v-819l-82 -205h-615l41 205h451v307h-451zM307 717h328v307h-328v-307z" />
<glyph unicode=":" d="M369 0v205h204v-205h-204zM369 512v205h204v-205h-204z" />
<glyph unicode=";" d="M369 0v205h204v-205l-41 -205h-163l41 205h-41zM369 512v205h204v-205h-204z" />
<glyph unicode="&#x3c;" d="M209 451v41l289 450h233l-291 -471l291 -471h-233z" />
<glyph unicode="=" d="M164 369v204h614v-204h-614zM164 655v205h614v-205h-614z" />
<glyph unicode="&#x3e;" d="M209 0l291 471l-291 471h233l289 -450v-41l-289 -451h-233z" />
<glyph unicode="?" d="M102 1024l41 205h615l82 -205v-307l-82 -205h-246v-225h-205v225l82 205h246v307h-533zM307 0v205h205v-205h-205z" />
<glyph unicode="@" d="M0 184v860l82 185h778l82 -185v-593l-82 -205h-328v41l-163 -41h-82l-62 205v61l62 205h82l163 -41v123h-286l41 184h348l82 -205v-327h41v593h-574v-860h676v-184h-778zM410 451h122v61h-122v-61z" />
<glyph unicode="A" d="M61 0l218 1229h385l217 -1229h-209l-56 307h-292l-54 -307h-209zM360 512h222l-90 512h-41z" />
<glyph unicode="B" d="M41 1229h737l82 -205v-328l-102 -61v-41l102 -62v-327l-82 -205h-696v1024zM287 205h368v307h-368v-307zM287 717h368v307h-368v-307z" />
<glyph unicode="C" d="M102 205v819l82 205h656l-41 -205h-492v-819h533l-41 -205h-615z" />
<glyph unicode="D" d="M41 1229h737l82 -205v-819l-82 -205h-696v1024zM287 205h368v819h-368v-819z" />
<glyph unicode="E" d="M61 1229h820l-41 -205h-533v-307h471l-41 -205h-430v-307h574l-41 -205h-738v1024z" />
<glyph unicode="F" d="M61 1229h820l-41 -205h-533v-307h471l-41 -205h-430v-512h-205v1024z" />
<glyph unicode="G" d="M82 205v819l82 205h676l-41 -205h-512v-819h368v205l-41 204h246v-409l-82 -205h-614z" />
<glyph unicode="H" d="M41 1229h246v-512h368v512h205v-1229h-205v512h-368v-512h-205v1024z" />
<glyph unicode="I" d="M164 1229h573v-205h-164v-819h205l-41 -205h-532v205h164v819h-164z" />
<glyph unicode="J" d="M20 0l41 205h492v819h-266v205h471v-1024l-82 -205h-656z" />
<glyph unicode="K" d="M41 1229h246v-512h225l180 512h209l-207 -615l207 -614h-209l-180 512h-225v-512h-205v1024z" />
<glyph unicode="L" d="M102 1229h246v-1024h533l-41 -205h-697v1024z" />
<glyph unicode="M" d="M10 1229h420l31 -512h20l31 512h379v-1229h-205v1024h-31l-51 -512h-266l-51 512h-31v-1024h-205v1024z" />
<glyph unicode="N" d="M41 1229h367l227 -819h20v819h205v-1229h-325l-228 819h-20v-819h-205v1024z" />
<glyph unicode="O" d="M61 512v205l72 307l139 205h398l139 -205l72 -307v-205l-72 -307l-139 -205h-398l-139 205zM272 512l52 -225l55 -82h184l58 86l51 209v205l-54 237l-57 82h-182l-57 -84l-50 -223v-205z" />
<glyph unicode="P" d="M61 1229h697l82 -205v-410l-82 -204h-451v-410h-205v1024zM307 614h328v410h-328v-410z" />
<glyph unicode="Q" d="M61 512v205l72 307l139 205h398l139 -205l72 -307v-205l-72 -307l-139 -205h-97l119 -287h-225l-119 287h-76l-139 205zM272 512l52 -225l55 -82h184l58 86l51 209v205l-54 237l-57 82h-182l-57 -84l-50 -223v-205z" />
<glyph unicode="R" d="M61 1229h697l82 -205v-410l-82 -204h-56l158 -410h-221l-158 410h-174v-410h-205v1024zM307 614h328v410h-328v-410z" />
<glyph unicode="S" d="M102 0l41 205h492v205l-533 286v328l82 205h615l41 -205h-533v-205l533 -287v-327l-82 -205h-656z" />
<glyph unicode="T" d="M20 1229h861l41 -205h-349v-1024h-204v1024h-308z" />
<glyph unicode="U" d="M61 1229h246v-1024h369v1024h205v-1024l-82 -205h-615l-82 205v819z" />
<glyph unicode="V" d="M61 1229h209l181 -1024h41l180 1024h209l-217 -1229h-385z" />
<glyph unicode="W" d="M20 205v1024h205v-1024h144v512h204v-512h144v1024h205v-1024l-82 -205h-328l-20 102h-41l-21 -102h-328z" />
<glyph unicode="X" d="M61 0l207 614l-207 615h209l181 -512h41l180 512h209l-207 -615l207 -614h-209l-180 512h-41l-181 -512h-209z" />
<glyph unicode="Y" d="M61 1229h209l181 -512h41l180 512h209l-242 -717h-66v-512h-204v512h-66z" />
<glyph unicode="Z" d="M82 0v319l532 664v41h-491l-41 205h737v-320l-532 -663v-41h532l41 -205h-778z" />
<glyph unicode="[" d="M184 -205v1639h574l-41 -205h-328v-1229h369l-41 -205h-533z" />
<glyph unicode="\" d="M152 1229h217l422 -1229h-218z" />
<glyph unicode="]" d="M184 -205l41 205h328v1229h-369l41 205h533v-1639h-574z" />
<glyph unicode="^" d="M82 709v231l369 289h41l368 -289v-233l-389 290z" />
<glyph unicode="_" d="M0 -82h942v-205h-942v205z" />
<glyph unicode="`" d="M315 1229h217l82 -205h-217z" />
<glyph unicode="a" d="M102 205v164l82 204h246l205 -81v245h-492l41 205h574l82 -205v-737h-205v82l-205 -82h-246zM307 205h328v164h-328v-164z" />
<glyph unicode="b" d="M82 1229h246v-369l204 82h246l82 -205v-532l-82 -205h-246l-204 82v-82h-205v1024zM328 205h327v532h-327v-532z" />
<glyph unicode="c" d="M102 205v532l82 205h656l-41 -205h-492v-532h533l-41 -205h-615z" />
<glyph unicode="d" d="M102 205v532l82 205h246l205 -82v164l-41 205h246v-1024l41 -205h-246v82l-205 -82h-246zM307 205h328v532h-328v-532z" />
<glyph unicode="e" d="M102 205v532l82 205h574l82 -205v-164l-82 -204h-451v-164h492l-41 -205h-574zM307 573h328v164h-328v-164z" />
<glyph unicode="f" d="M20 635l41 205h164v184l82 205h553l-41 -205h-389v-184h348l-41 -205h-307v-635h-205v635h-205z" />
<glyph unicode="g" d="M102 205v532l82 205h246l205 -82v82h205v-1024l-82 -205h-615l41 205h451v164l-205 -82h-246zM307 205h328v532h-328v-532z" />
<glyph unicode="h" d="M61 1229h246v-369l205 82h266l82 -205v-737h-205v737h-348v-737h-205v1024z" />
<glyph unicode="i" d="M82 0v205h266v532h-164l-41 205h410v-737h307l-41 -205h-737zM348 1024v205h205v-205h-205z" />
<glyph unicode="j" d="M0 -287l41 205h430v819h-266v205h471v-1024l-82 -205h-594zM471 1024v205h205v-205h-205z" />
<glyph unicode="k" d="M61 1229h246v-656h195l166 369h223l-209 -471l209 -471h-223l-166 369h-195v-369h-205v1024z" />
<glyph unicode="l" d="M82 1229h450v-1024h287l-41 -205h-450v1024h-205z" />
<glyph unicode="m" d="M0 942h246v-82l205 82h81l41 -82l205 82h41l82 -205v-737h-205v737h-123v-737h-204v737h-123v-737h-205v737z" />
<glyph unicode="n" d="M61 942h246v-82l205 82h246l82 -205v-737h-205v737h-328v-737h-205v737z" />
<glyph unicode="o" d="M102 205v532l82 205h574l82 -205v-532l-82 -205h-574zM307 205h328v532h-328v-532z" />
<glyph unicode="p" d="M61 942h246v-82l205 82h246l82 -205v-532l-82 -205h-246l-205 82v-369h-205v1024zM307 205h328v532h-328v-532z" />
<glyph unicode="q" d="M102 205v532l82 205h246l205 -82v82h205v-1229h-205v369l-205 -82h-246zM307 205h328v532h-328v-532z" />
<glyph unicode="r" d="M164 942h246v-82l204 82h205l41 -205h-450v-737h-205v737z" />
<glyph unicode="s" d="M102 0l41 205h492v82l-533 235v215l82 205h615l41 -205h-533v-82l533 -235v-215l-82 -205h-656z" />
<glyph unicode="t" d="M41 737l41 205h102v287h205v-287h389l-41 -205h-348v-532h492l-41 -205h-574l-82 205v532h-143z" />
<glyph unicode="u" d="M61 942h246v-737h348v737h205v-942h-205v82l-204 -82h-267l-82 205v532z" />
<glyph unicode="v" d="M61 942h209l181 -737h41l180 737h209l-226 -942h-368z" />
<glyph unicode="w" d="M41 205v737h205v-737h123v512h204v-512h123v737h205v-737l-82 -205h-307l-20 102h-41l-21 -102h-307z" />
<glyph unicode="x" d="M61 0l209 471l-209 471h224l166 -369h41l165 369h224l-209 -471l209 -471h-224l-165 369h-41l-166 -369h-224z" />
<glyph unicode="y" d="M41 942h209l180 -737h82l180 737h209l-295 -1229h-213l70 287h-197z" />
<glyph unicode="z" d="M82 0v358l532 338v41h-491l-41 205h737v-358l-532 -338v-41h532l41 -205h-778z" />
<glyph unicode="{" d="M123 594v41l143 102v389l82 205h328l-41 -205h-164v-430l-102 -61v-41l102 -62v-430h205l-41 -204h-287l-82 204v390z" />
<glyph unicode="|" d="M369 -82v1393h204v-1393h-204z" />
<glyph unicode="}" d="M266 102h205v430l102 62v41l-102 61v430h-164l-41 205h328l82 -205v-389l143 -102v-41l-143 -102v-390l-82 -204h-287z" />
<glyph unicode="~" d="M143 635v164l144 82h164l122 -82h41l41 82h144v-164l-144 -82h-163l-123 82h-41l-41 -82h-144z" />
<glyph unicode="&#xa0;" />
<glyph unicode="&#xa1;" d="M348 -287l41 205v737h205v-942h-246zM389 737v205h205v-205h-205z" />
<glyph unicode="&#xa2;" d="M102 205v532l82 205h185v205h204v-205h267l-41 -205h-492v-532h533l-41 -205h-226v-205h-204v205h-185z" />
<glyph unicode="&#xa3;" d="M20 655l41 205h82v164l82 205h328l-82 -205h-123v-164h369l-41 -205h-328v-450h369l205 82v-82l-41 -205h-779l41 205v450h-123z" />
<glyph unicode="&#xa5;" d="M61 1229h209l181 -512h41l180 512h209l-187 -553h146l-41 -164h-226v-143h267l-41 -164h-226v-205h-204v205h-267l41 164h226v143h-267l41 164h105z" />
<glyph unicode="&#xa6;" d="M369 -82v594h204v-594h-204zM369 717v594h204v-594h-204z" />
<glyph unicode="&#xa7;" d="M102 0l41 205h492v164l-82 -52l-451 164v543l82 205h615l41 -205h-533v-164l82 51l451 -163v-543l-82 -205h-656zM307 614l328 -120v120l-328 119v-119z" />
<glyph unicode="&#xa8;" d="M205 1024v205h205v-205h-205zM532 1024v205h205v-205h-205z" />
<glyph unicode="&#xa9;" d="M10 604q0 125 62 231t168 168t231 62t231 -62t168 -168t62 -231t-62 -231t-168 -168t-231 -62t-231 62t-168 168t-62 231zM61 604q0 -167 121.5 -288t288.5 -121t288.5 121t121.5 288t-121.5 288.5t-288.5 121.5t-288.5 -121.5t-121.5 -288.5zM287 399v410l41 102h327 l-20 -102h-246v-410h266l-20 -102h-307z" />
<glyph unicode="&#xab;" d="M119 594v41l209 594h209l-207 -615l207 -614h-209zM406 594v41l208 594h209l-207 -615l207 -614h-209z" />
<glyph unicode="&#xad;" d="M164 512v205h614v-205h-614z" />
<glyph unicode="&#xae;" d="M10 788q0 125 62 231t168 168t231 62t231 -62t168 -168t62 -231q0 -190 -135 -325t-326 -135t-326 135t-135 325zM61 788q0 -167 121.5 -288t288.5 -121t288.5 121t121.5 288t-121.5 288.5t-288.5 121.5t-288.5 -121.5t-121.5 -288.5zM270 1106h348l41 -102v-205 l-41 -103h-26l78 -204h-111l-78 204h-88v-204h-102v512zM393 799h164v205h-164v-205z" />
<glyph unicode="&#xaf;" d="M123 1065v123h696v-123h-696z" />
<glyph unicode="&#xb0;" d="M266 1024q0 85 59 145t146 60q86 0 145.5 -59.5t59.5 -145.5q0 -87 -60 -146t-145 -59q-88 0 -146.5 58.5t-58.5 146.5zM369 1024q0 -43 29.5 -72.5t72.5 -29.5t72.5 29.5t29.5 72.5t-29.5 72.5t-72.5 29.5t-72.5 -29.5t-29.5 -72.5z" />
<glyph unicode="&#xb1;" d="M61 82v205h820v-205h-820zM61 676v205h308v307h204v-307h308v-205h-308v-307h-204v307h-308z" />
<glyph unicode="&#xb2;" d="M205 614v308l82 204h245v103h-327l41 205h409l82 -205v-103l-82 -204h-245v-103h327l-41 -205h-491z" />
<glyph unicode="&#xb3;" d="M205 614l41 205h286v103h-225l41 204h49l78 103h-270l41 205h491v-205l-119 -103h37l82 -204v-103l-82 -205h-450z" />
<glyph unicode="&#xb4;" d="M328 1024l82 205h217l-82 -205h-217z" />
<glyph unicode="&#xb7;" d="M369 512v205h204v-205h-204z" />
<glyph unicode="&#xb8;" d="M338 -225h164v51h-82l-41 102v72h102v-72h62l61 -102v-51l-61 -103h-185z" />
<glyph unicode="&#xb9;" d="M205 614v205h143v357l-143 -123v258l143 123h205v-615h184l-41 -205h-491z" />
<glyph unicode="&#xbb;" d="M119 0l207 614l-207 615h209l209 -594v-41l-209 -594h-209zM406 0l206 614l-206 615h208l209 -594v-41l-209 -594h-208z" />
<glyph unicode="&#xbc;" d="M61 553v123h820v-123h-820zM205 82l151 430h222l-152 -430h106v225h205v-614h-205v184h-327v205zM205 717v205h143v356l-143 -123v258l143 123h205v-614h184l-41 -205h-491z" />
<glyph unicode="&#xbd;" d="M61 553v123h820v-123h-820zM205 0l82 205h245v102h-327l41 205h409l82 -205v-102l-82 -205h-245v-102h327l-41 -205h-491v307zM205 717v205h143v356l-143 -123v258l143 123h205v-614h184l-41 -205h-491z" />
<glyph unicode="&#xbe;" d="M61 553v123h820v-123h-820zM205 82l151 430h222l-152 -430h106v225h205v-614h-205v184h-327v205zM205 717l41 205h286v102h-225l41 205h49l78 102h-270l41 205h491v-205l-119 -102h37l82 -205v-102l-82 -205h-450z" />
<glyph unicode="&#xbf;" d="M102 -82v307l82 205h246v225h205v-225l-82 -205h-246v-307h533l-41 -205h-615zM430 737v205h205v-205h-205z" />
<glyph unicode="&#xc0;" d="M61 0l218 1229h385l217 -1229h-209l-56 307h-292l-54 -307h-209zM315 1516h217l82 -205h-217zM360 512h222l-90 512h-41z" />
<glyph unicode="&#xc1;" d="M61 0l218 1229h385l217 -1229h-209l-56 307h-292l-54 -307h-209zM328 1311l82 205h217l-82 -205h-217zM360 512h222l-90 512h-41z" />
<glyph unicode="&#xc2;" d="M61 0l218 1229h385l217 -1229h-209l-56 307h-292l-54 -307h-209zM143 1311v205l308 110h41l307 -110v-205l-328 104zM360 512h222l-90 512h-41z" />
<glyph unicode="&#xc3;" d="M61 0l218 1229h385l217 -1229h-209l-56 307h-292l-54 -307h-209zM143 1331v164l144 82h164l122 -82h41l41 82h144v-164l-144 -82h-163l-123 82h-41l-41 -82h-144zM360 512h222l-90 512h-41z" />
<glyph unicode="&#xc4;" d="M61 0l218 1229h385l217 -1229h-209l-56 307h-292l-54 -307h-209zM205 1311v205h205v-205h-205zM360 512h222l-90 512h-41zM532 1311v205h205v-205h-205z" />
<glyph unicode="&#xc5;" d="M61 0l218 1229h385l217 -1229h-209l-56 307h-292l-54 -307h-209zM348 1413q0 51 36 87t87 36t87 -36t36 -87t-36 -87t-87 -36t-87 36t-36 87zM360 512h222l-90 512h-41zM410 1413q0 -26 17.5 -43.5t43.5 -17.5t43.5 17.5t17.5 43.5t-17.5 44t-43.5 18t-43.5 -18 t-17.5 -44z" />
<glyph unicode="&#xc6;" d="M10 0l217 1229h705l-41 -205h-246v-307h184l-41 -205h-143v-307h287l-41 -205h-451v307h-168l-53 -307h-209zM309 512h131v512h-41z" />
<glyph unicode="&#xc7;" d="M102 205v819l82 205h656l-41 -205h-492v-819h533l-41 -205h-615zM338 -225h164v51h-82l-41 102v72h102v-72h62l61 -102v-51l-61 -103h-185z" />
<glyph unicode="&#xc8;" d="M61 1229h820l-41 -205h-533v-307h471l-41 -205h-430v-307h574l-41 -205h-738v1024zM315 1516h217l82 -205h-217z" />
<glyph unicode="&#xc9;" d="M61 1229h820l-41 -205h-533v-307h471l-41 -205h-430v-307h574l-41 -205h-738v1024zM328 1311l82 205h217l-82 -205h-217z" />
<glyph unicode="&#xca;" d="M61 1229h820l-41 -205h-533v-307h471l-41 -205h-430v-307h574l-41 -205h-738v1024zM143 1311v205l308 110h41l307 -110v-205l-328 104z" />
<glyph unicode="&#xcb;" d="M61 1229h820l-41 -205h-533v-307h471l-41 -205h-430v-307h574l-41 -205h-738v1024zM205 1311v205h205v-205h-205zM532 1311v205h205v-205h-205z" />
<glyph unicode="&#xcc;" d="M164 1229h573v-205h-164v-819h205l-41 -205h-532v205h164v819h-164zM315 1516h217l82 -205h-217z" />
<glyph unicode="&#xcd;" d="M164 1229h573v-205h-164v-819h205l-41 -205h-532v205h164v819h-164zM328 1311l82 205h217l-82 -205h-217z" />
<glyph unicode="&#xce;" d="M143 1311v205l308 110h41l307 -110v-205l-328 104zM164 1229h573v-205h-164v-819h205l-41 -205h-532v205h164v819h-164z" />
<glyph unicode="&#xcf;" d="M164 1229h573v-205h-164v-819h205l-41 -205h-532v205h164v819h-164zM205 1311v205h205v-205h-205zM532 1311v205h205v-205h-205z" />
<glyph unicode="&#xd0;" d="M0 512v205h82v307l-41 205h737l82 -205v-819l-82 -205h-696v512h-82zM287 205h368v819h-368v-307h123v-205h-123v-307z" />
<glyph unicode="&#xd1;" d="M41 1229h367l227 -819h20v819h205v-1229h-325l-228 819h-20v-819h-205v1024zM143 1331v164l144 82h164l122 -82h41l41 82h144v-164l-144 -82h-163l-123 82h-41l-41 -82h-144z" />
<glyph unicode="&#xd2;" d="M61 512v205l72 307l139 205h398l139 -205l72 -307v-205l-72 -307l-139 -205h-398l-139 205zM272 512l52 -225l55 -82h184l58 86l51 209v205l-54 237l-57 82h-182l-57 -84l-50 -223v-205zM315 1516h217l82 -205h-217z" />
<glyph unicode="&#xd3;" d="M61 512v205l72 307l139 205h398l139 -205l72 -307v-205l-72 -307l-139 -205h-398l-139 205zM272 512l52 -225l55 -82h184l58 86l51 209v205l-54 237l-57 82h-182l-57 -84l-50 -223v-205zM328 1311l82 205h217l-82 -205h-217z" />
<glyph unicode="&#xd4;" d="M61 512v205l72 307l139 205h398l139 -205l72 -307v-205l-72 -307l-139 -205h-398l-139 205zM143 1311v205l308 110h41l307 -110v-205l-328 104zM272 512l52 -225l55 -82h184l58 86l51 209v205l-54 237l-57 82h-182l-57 -84l-50 -223v-205z" />
<glyph unicode="&#xd5;" d="M61 512v205l72 307l139 205h398l139 -205l72 -307v-205l-72 -307l-139 -205h-398l-139 205zM143 1331v164l144 82h164l122 -82h41l41 82h144v-164l-144 -82h-163l-123 82h-41l-41 -82h-144zM272 512l52 -225l55 -82h184l58 86l51 209v205l-54 237l-57 82h-182l-57 -84 l-50 -223v-205z" />
<glyph unicode="&#xd6;" d="M61 512v205l72 307l139 205h398l139 -205l72 -307v-205l-72 -307l-139 -205h-398l-139 205zM205 1311v205h205v-205h-205zM272 512l52 -225l55 -82h184l58 86l51 209v205l-54 237l-57 82h-182l-57 -84l-50 -223v-205zM532 1311v205h205v-205h-205z" />
<glyph unicode="&#xd7;" d="M109 397l217 217l-217 217l145 146l217 -217l217 217l146 -146l-218 -217l218 -217l-146 -145l-217 217l-217 -217z" />
<glyph unicode="&#xd8;" d="M0 0v287l82 82v655l82 205h614l47 -117l117 117v-287l-82 -82v-655l-82 -205h-614l-47 117zM287 205h368v450l-368 -368v-82zM287 573l368 369v82h-368v-451z" />
<glyph unicode="&#xd9;" d="M61 1229h246v-1024h369v1024h205v-1024l-82 -205h-615l-82 205v819zM315 1516h217l82 -205h-217z" />
<glyph unicode="&#xda;" d="M61 1229h246v-1024h369v1024h205v-1024l-82 -205h-615l-82 205v819zM328 1311l82 205h217l-82 -205h-217z" />
<glyph unicode="&#xdb;" d="M61 1229h246v-1024h369v1024h205v-1024l-82 -205h-615l-82 205v819zM143 1311v205l308 110h41l307 -110v-205l-328 104z" />
<glyph unicode="&#xdc;" d="M61 1229h246v-1024h369v1024h205v-1024l-82 -205h-615l-82 205v819zM205 1311v205h205v-205h-205zM532 1311v205h205v-205h-205z" />
<glyph unicode="&#xdd;" d="M61 1229h209l181 -512h41l180 512h209l-242 -717h-66v-512h-204v512h-66zM328 1311l82 205h217l-82 -205h-217z" />
<glyph unicode="&#xde;" d="M61 1229h246v-205h471l82 -205v-409l-82 -205h-471v-205h-205v1024zM307 410h348v409h-348v-409z" />
<glyph unicode="&#xdf;" d="M61 0l41 205v819l82 205h492l82 -205v-307l-103 -82v-41h82l103 -82v-307l-82 -205h-369v205h246v307h-246v205h164v307h-246v-1024h-246z" />
<glyph unicode="&#xe0;" d="M102 205v164l82 204h246l205 -81v245h-492l41 205h574l82 -205v-737h-205v82l-205 -82h-246zM307 205h328v164h-328v-164zM315 1229h217l82 -205h-217z" />
<glyph unicode="&#xe1;" d="M102 205v164l82 204h246l205 -81v245h-492l41 205h574l82 -205v-737h-205v82l-205 -82h-246zM307 205h328v164h-328v-164zM356 1024l82 205h217l-82 -205h-217z" />
<glyph unicode="&#xe2;" d="M102 205v164l82 204h246l205 -81v245h-492l41 205h574l82 -205v-737h-205v82l-205 -82h-246zM143 1024v205l308 110h41l307 -110v-205l-328 104zM307 205h328v164h-328v-164z" />
<glyph unicode="&#xe3;" d="M102 205v164l82 204h246l205 -81v245h-492l41 205h574l82 -205v-737h-205v82l-205 -82h-246zM143 1044v164l144 82h164l122 -82h41l41 82h144v-164l-144 -82h-163l-123 82h-41l-41 -82h-144zM307 205h328v164h-328v-164z" />
<glyph unicode="&#xe4;" d="M102 205v164l82 204h246l205 -81v245h-492l41 205h574l82 -205v-737h-205v82l-205 -82h-246zM205 1024v205h205v-205h-205zM307 205h328v164h-328v-164zM532 1024v205h205v-205h-205z" />
<glyph unicode="&#xe5;" d="M102 205v164l82 204h246l205 -81v245h-492l41 205h574l82 -205v-737h-205v82l-205 -82h-246zM307 205h328v164h-328v-164zM348 1126q0 51 36 87t87 36t87 -36t36 -87t-36 -86.5t-87 -35.5t-87 35.5t-36 86.5zM410 1126q0 -26 17.5 -43.5t43.5 -17.5t43.5 17.5t17.5 43.5 t-17.5 44t-43.5 18t-43.5 -18t-17.5 -44z" />
<glyph unicode="&#xe6;" d="M20 205v164l82 204h82l205 -81v245h-328l41 205h738l82 -205v-164l-82 -204h-246v-164h287l-41 -205h-451v82l-205 -82h-82zM225 205h164v164h-164v-164zM594 573h123v164h-123v-164z" />
<glyph unicode="&#xe7;" d="M102 205v532l82 205h656l-41 -205h-492v-532h533l-41 -205h-615zM338 -225h164v51h-82l-41 102v72h102v-72h62l61 -102v-51l-61 -103h-185z" />
<glyph unicode="&#xe8;" d="M102 205v532l82 205h574l82 -205v-164l-82 -204h-451v-164h492l-41 -205h-574zM303 1229h217l82 -205h-217zM307 573h328v164h-328v-164z" />
<glyph unicode="&#xe9;" d="M102 205v532l82 205h574l82 -205v-164l-82 -204h-451v-164h492l-41 -205h-574zM307 573h328v164h-328v-164zM356 1024l82 205h217l-82 -205h-217z" />
<glyph unicode="&#xea;" d="M102 205v532l82 205h574l82 -205v-164l-82 -204h-451v-164h492l-41 -205h-574zM143 1024v205l308 110h41l307 -110v-205l-328 104zM307 573h328v164h-328v-164z" />
<glyph unicode="&#xeb;" d="M102 205v532l82 205h574l82 -205v-164l-82 -204h-451v-164h492l-41 -205h-574zM205 1024v205h205v-205h-205zM307 573h328v164h-328v-164zM532 1024v205h205v-205h-205z" />
<glyph unicode="&#xec;" d="M82 0v205h266v532h-164l-41 205h410v-737h307l-41 -205h-737zM254 1229h217l82 -205h-217z" />
<glyph unicode="&#xed;" d="M82 0v205h266v532h-164l-41 205h410v-737h307l-41 -205h-737zM338 1024l82 205h217l-82 -205h-217z" />
<glyph unicode="&#xee;" d="M82 0v205h266v532h-164l-41 205h410v-737h307l-41 -205h-737zM143 1024v205l308 110h41l307 -110v-205l-328 104z" />
<glyph unicode="&#xef;" d="M82 0v205h266v532h-164l-41 205h410v-737h307l-41 -205h-737zM184 1024v205h205v-205h-205zM512 1024v205h205v-205h-205z" />
<glyph unicode="&#xf1;" d="M61 942h246v-82l205 82h246l82 -205v-737h-205v737h-328v-737h-205v737zM143 1044v164l144 82h164l122 -82h41l41 82h144v-164l-144 -82h-163l-123 82h-41l-41 -82h-144z" />
<glyph unicode="&#xf2;" d="M102 205v532l82 205h574l82 -205v-532l-82 -205h-574zM307 205h328v532h-328v-532zM315 1229h217l82 -205h-217z" />
<glyph unicode="&#xf3;" d="M102 205v532l82 205h574l82 -205v-532l-82 -205h-574zM307 205h328v532h-328v-532zM328 1024l82 205h217l-82 -205h-217z" />
<glyph unicode="&#xf4;" d="M102 205v532l82 205h574l82 -205v-532l-82 -205h-574zM143 1024v205l308 110h41l307 -110v-205l-328 104zM307 205h328v532h-328v-532z" />
<glyph unicode="&#xf5;" d="M102 205v532l82 205h574l82 -205v-532l-82 -205h-574zM143 1044v164l144 82h164l122 -82h41l41 82h144v-164l-144 -82h-163l-123 82h-41l-41 -82h-144zM307 205h328v532h-328v-532z" />
<glyph unicode="&#xf6;" d="M102 205v532l82 205h574l82 -205v-532l-82 -205h-574zM205 1024v205h205v-205h-205zM307 205h328v532h-328v-532zM532 1024v205h205v-205h-205z" />
<glyph unicode="&#xf7;" d="M61 512v205h820v-205h-820zM369 205v205h204v-205h-204zM369 819v205h204v-205h-204z" />
<glyph unicode="&#xf8;" d="M0 0v246l82 59v432l82 205h614l37 -94l127 94v-246l-82 -61v-430l-82 -205h-614l-39 92zM287 205h368v278l-368 -270v-8zM287 457l368 272v8h-368v-280z" />
<glyph unicode="&#xf9;" d="M61 942h246v-737h348v737h205v-942h-205v82l-204 -82h-267l-82 205v532zM335 1229h217l82 -205h-217z" />
<glyph unicode="&#xfa;" d="M61 942h246v-737h348v737h205v-942h-205v82l-204 -82h-267l-82 205v532zM348 1024l82 205h217l-82 -205h-217z" />
<glyph unicode="&#xfb;" d="M61 942h246v-737h348v737h205v-942h-205v82l-204 -82h-267l-82 205v532zM143 1024v205l308 110h41l307 -110v-205l-328 104z" />
<glyph unicode="&#xfc;" d="M61 942h246v-737h348v737h205v-942h-205v82l-204 -82h-267l-82 205v532zM225 1024v205h205v-205h-205zM553 1024v205h205v-205h-205z" />
<glyph unicode="&#xfd;" d="M41 942h209l180 -737h82l180 737h209l-295 -1229h-213l70 287h-197zM328 1024l82 205h217l-82 -205h-217z" />
<glyph unicode="&#xfe;" d="M61 1147h246v-205h471l82 -205v-532l-82 -205h-471v-205h-205v1147zM307 205h348v532h-348v-532z" />
<glyph unicode="&#xff;" d="M41 942h209l180 -737h82l180 737h209l-295 -1229h-213l70 287h-197zM205 1024v205h205v-205h-205zM532 1024v205h205v-205h-205z" />
<glyph unicode="&#x152;" d="M41 205v819l82 205h799l-41 -205h-267v-307h205l-41 -205h-164v-307h308l-41 -205h-758zM246 205h164v819h-164v-819z" />
<glyph unicode="&#x153;" d="M61 205v532l82 205h676l82 -205v-164l-82 -204h-225v-164h266l-41 -205h-676zM266 205h123v532h-123v-532zM594 573h102v164h-102v-164z" />
<glyph unicode="&#x178;" d="M61 1229h209l181 -512h41l180 512h209l-242 -717h-66v-512h-204v512h-66zM205 1311v205h205v-205h-205zM532 1311v205h205v-205h-205z" />
<glyph unicode="&#x2c6;" d="M143 1024v205l308 110h41l307 -110v-205l-328 104z" />
<glyph unicode="&#x2dc;" d="M143 1044v164l144 82h164l122 -82h41l41 82h144v-164l-144 -82h-163l-123 82h-41l-41 -82h-144z" />
<glyph unicode="&#x2000;" horiz-adv-x="813" />
<glyph unicode="&#x2001;" horiz-adv-x="1626" />
<glyph unicode="&#x2002;" horiz-adv-x="813" />
<glyph unicode="&#x2003;" horiz-adv-x="1626" />
<glyph unicode="&#x2004;" horiz-adv-x="542" />
<glyph unicode="&#x2005;" horiz-adv-x="406" />
<glyph unicode="&#x2006;" horiz-adv-x="271" />
<glyph unicode="&#x2007;" horiz-adv-x="271" />
<glyph unicode="&#x2008;" horiz-adv-x="203" />
<glyph unicode="&#x2009;" horiz-adv-x="325" />
<glyph unicode="&#x200a;" horiz-adv-x="90" />
<glyph unicode="&#x2010;" d="M164 512v205h614v-205h-614z" />
<glyph unicode="&#x2011;" d="M164 512v205h614v-205h-614z" />
<glyph unicode="&#x2012;" d="M164 512v205h614v-205h-614z" />
<glyph unicode="&#x2013;" d="M92 512v205h758v-205h-758z" />
<glyph unicode="&#x2014;" d="M20 512v205h902v-205h-902z" />
<glyph unicode="&#x2018;" d="M369 819v205l41 205h163l-41 -205h41v-205h-204z" />
<glyph unicode="&#x2019;" d="M369 819l41 205h-41v205h204v-205l-41 -205h-163z" />
<glyph unicode="&#x201a;" d="M369 0v205h204v-205l-41 -205h-163l41 205h-41z" />
<glyph unicode="&#x201c;" d="M225 819v205l41 205h164l-41 -205h41v-205h-205zM512 819v205l41 205h164l-41 -205h41v-205h-205z" />
<glyph unicode="&#x201d;" d="M225 819l41 205h-41v205h205v-205l-41 -205h-164zM512 819l41 205h-41v205h205v-205l-41 -205h-164z" />
<glyph unicode="&#x201e;" d="M225 0v205h205v-205l-41 -205h-164l41 205h-41zM512 0v205h205v-205l-41 -205h-164l41 205h-41z" />
<glyph unicode="&#x2022;" d="M266 410v409h410v-409h-410z" />
<glyph unicode="&#x2026;" d="M82 0v205h205v-205h-205zM369 0v205h204v-205h-204zM655 0v205h205v-205h-205z" />
<glyph unicode="&#x202f;" horiz-adv-x="325" />
<glyph unicode="&#x2039;" d="M262 594v41l209 594h209l-207 -615l207 -614h-209z" />
<glyph unicode="&#x203a;" d="M262 0l207 614l-207 615h209l209 -594v-41l-209 -594h-209z" />
<glyph unicode="&#x205f;" horiz-adv-x="406" />
<glyph unicode="&#x20ac;" d="M20 369l41 204h82v82h-123l41 205h82v164l82 205h656l-41 -205h-492v-164h461l-41 -205h-420v-82h400l-41 -204h-359v-164h533l-41 -205h-615l-82 205v164h-123z" />
<glyph unicode="&#x2122;" d="M10 1331h430l21 -102h-174v-512h-103v512h-153zM471 1331h209l16 -256h11l14 256h190v-614h-102v512h-16l-25 -256h-133l-27 256h-14v-512h-102v512z" />
<glyph unicode="&#x25fc;" d="M0 0v942h942v-942h-942z" />
<glyph unicode="&#xfb01;" d="M0 635l41 205h82v184l82 205h553l-41 -205h-389v-184h471v-635h143l-41 -205h-450v205h143v430h-266v-635h-205v635h-123z" />
<glyph unicode="&#xfb02;" d="M0 635l41 205h82v184l82 205h614v-1024h123l-41 -205h-287v1024h-286v-184h245l-41 -205h-204v-635h-205v635h-123z" />
</font>
</defs>
</svg>
